<svg width="220" height="70" viewBox="0 0 300 150" fill="none" xmlns="http://www.w3.org/2000/svg">
<g clip-path="url(#clip0_117438_351184)">
<path d="M81.8 27.1622C78.6667 13.2433 70.8 1.95952 69.7333 0.067627C68 2.63519 61.7333 12.6352 58.5333 23.7163C55.0667 36.0811 54.5333 47.0271 55.7333 57.8379C56.9333 68.6487 61.4 79.7298 61.4 79.7298C63.8 85.5406 67.4 91.7568 69.7333 94.8649C73.1333 90.3379 81 76.9595 83.4667 59.392C84.8667 49.6622 84.9333 41.0811 81.8 27.1622ZM69.7333 91.419C68.2 88.446 65.8 82.9055 65.6 74.2568C65.5333 65.8784 68.8667 58.7163 69.8 57.2298C70.6667 58.7163 73.5333 65.0001 73.8667 73.5136C74 81.8244 71.2667 88.446 69.7333 91.419ZM80.8667 50.8109C80.7333 56.1487 80.1333 61.6893 79.3333 65.0676C79.6 59.3244 78.9333 51.1487 77.6 44.7974C76.2667 38.446 72.6 27.8379 69.6 22.9055C66.8667 27.5676 63.5333 36.7568 61.7333 44.7298C60 52.7028 59.9333 62.3649 59.9333 65.2028C59.4667 62.7703 58.2667 54.0541 58.6 45.3379C58.8667 38.1082 60.5333 30.7433 61.4667 27.2974C64.9333 15.946 68.8667 8.64871 69.6 7.50006C70.3333 8.64871 75.2667 17.6352 77.8667 27.0271C80.4667 36.4865 81 45.473 80.8667 50.8109Z" fill="#0079C1"/>
<path d="M75 98.108H51.2V114.324L51.2667 114.257C56.8667 108.581 66 108.581 71.6 114.257C77.2 119.932 77.2 129.189 71.6 134.865L71.5333 134.932L71.4667 135C65.8667 140.608 58.5333 143.446 51.2 143.446C43.8667 143.446 36.4667 140.608 30.8667 134.932C20.9333 124.932 19.8 109.459 27.3333 98.108C28.3333 96.554 29.5333 95.135 30.8667 93.7837C36.4667 88.108 43.8667 85.2702 51.2 85.2702V46.2837C22.9333 46.2837 0 69.5269 0 98.108C0 126.757 22.9333 150 51.2 150C65.9333 150 79.2 143.716 88.5333 133.581V98.108H75Z" fill="#0079C1"/>
<path d="M94.6 46.2837H114.133V52.7026H104.867V98.108H94.6666V46.2837H94.6Z" fill="#0079C1"/>
<path d="M125.133 78.6486L126.867 52.7026H127.467L129.2 78.6486H125.133ZM113.8 98.108H123.8L124.733 84.3242H129.533L130.467 98.108H140.467L135.133 46.2837H119.067L113.8 98.108Z" fill="#0079C1"/>
<path d="M154 79.9999V89.7296C154 91.081 155 91.4188 155.6 91.4188C156.533 91.4188 157.2 90.608 157.2 89.7296V77.7026C157.2 76.081 156.933 74.3242 153.133 74.3242H149V68.6486H153.333C156.267 68.6486 157.267 67.9729 157.267 64.7972V54.3918C157.267 53.5134 156.6 52.7026 155.667 52.7026C155.067 52.7026 154.067 53.0404 154.067 54.3918V62.8377H143.867V55.5404C143.867 51.8918 144.333 46.2837 151.467 46.2837H159.933C167.067 46.2837 167.533 51.8918 167.533 55.5404V63.8513C167.533 69.4594 163.667 71.0134 160.6 70.8783V71.4188C167.467 71.2837 167.533 76.6215 167.533 78.4459V88.9188C167.533 92.5675 167.067 98.1756 159.933 98.1756H151.467C144.333 98.1756 143.867 92.5675 143.867 88.9188V79.9999H154Z" fill="#0079C1"/>
<path d="M172.8 46.2837H196.467V98.108H186.267V52.7026H183.067V98.108H172.867V46.2837H172.8Z" fill="#0079C1"/>
<path d="M212.733 74.7972V52.7026H214.067C215.133 52.7026 215.933 53.6486 215.933 55.2702V72.1621C215.933 73.7837 215.133 74.7296 214.067 74.7296H212.733V74.7972ZM202.467 98.108H212.667V80.4729H218.533C225.667 80.4729 226.133 74.8648 226.133 71.2161V55.5404C226.133 51.8918 225.667 46.2837 218.533 46.2837H202.467V98.108Z" fill="#0079C1"/>
<path d="M244.6 89.7296C244.6 90.608 243.933 91.4188 243 91.4188C242.4 91.4188 241.4 91.081 241.4 89.7296V54.3918C241.4 53.0404 242.4 52.7026 243 52.7026C243.933 52.7026 244.6 53.5134 244.6 54.3918V89.7296ZM231.133 88.8513C231.133 92.4999 231.6 98.108 238.733 98.108H247.2C254.333 98.108 254.8 92.4999 254.8 88.8513V55.5404C254.8 51.8918 254.333 46.2837 247.2 46.2837H238.733C231.6 46.2837 231.133 51.8918 231.133 55.5404V88.8513Z" fill="#0079C1"/>
<path d="M286.667 46.2837H299.933V98.108H289.733V65.608H289.4L284.133 98.108H275.933L270.667 65.608H270.267V98.108H260.067V46.2837H273.333L280 82.7026L286.667 46.2837Z" fill="#0079C1"/>
<path d="M167.6 125.203H166.8V130.608H167.733C169 130.608 170.2 130 170.2 127.838C170.133 125.743 169.067 125.203 167.6 125.203Z" fill="#0079C1"/>
<path d="M271.533 125.203L270.2 134.662H272.933L271.6 125.203H271.533Z" fill="#0079C1"/>
<path d="M94.6 114.189V149.932H300V114.189H94.6ZM120.733 142.838H115.867V135.338C115.867 133.243 116 127.77 116.133 126.014L113 142.905H109.467L106.333 126.014C106.4 127.5 106.6 132.432 106.6 135.338V142.905H101.733V121.487H108.867L110.533 130.203C110.867 131.959 111.067 134.932 111.333 136.959H111.4C111.667 135 111.867 131.689 112.133 130.203L113.8 121.487H120.933V142.838H120.733ZM135.467 125.405H128.733V129.595H134.8V133.649H128.733V138.716H135.467V142.77H123.6V121.351H135.467V125.405ZM159.733 142.838H154.4L152.067 135.338L150.667 137.838V142.838H145.8V137.838L144.4 135.338L142.067 142.838H136.733L141.4 130.878L136.733 121.419H142.267L145.867 129.932V121.419H150.733V129.932L154.333 121.419H159.867L155.2 130.878L159.733 142.838ZM169.067 134.459H166.733V142.838H161.667V121.419H169.067C172 121.419 175.267 122.5 175.267 127.973C175.267 133.176 172.067 134.459 169.067 134.459ZM188.733 125.405H182V129.595H188.067V133.649H182V138.716H188.733V142.77H176.867V121.351H188.733V125.405ZM202.8 125.405H196.067V142.77H190.933V121.351H202.8V125.405ZM218.2 142.838H213.333V137.838C213.333 135.541 214.067 132.027 214.267 129.797L209.867 142.838H204.933V121.419H209.8V126.757C209.8 129.122 209.133 132.568 209.067 134.932L213.4 121.487H218.267V142.838H218.2ZM234.667 136.554C234.667 140.811 232.6 143.311 227.8 143.311C223.067 143.311 220.933 140.811 220.933 136.554V126.892C220.933 123.514 223 120.878 227.8 120.878C232.6 120.878 234.667 123.581 234.667 126.959V136.554ZM250.933 142.838H245.867V133.716H242.533V142.838H237.467V121.419H242.533V129.73H245.867V121.419H250.933V142.838ZM258.867 142.838H253.8V121.419H265.667V125.473H258.933V142.838H258.867ZM274.4 142.838L273.6 138.514H269.733L269.067 142.838H264L268.6 121.419H274.733L279.4 142.838H274.4ZM286.867 143.311C283.733 143.311 280.2 141.892 280.2 136.351H284.867C284.867 138.716 285.533 139.459 286.667 139.459C288 139.459 288.533 138.784 288.533 136.351C288.533 134.324 287.933 133.514 286.267 133.514H285.533V129.73H286.733C287.467 129.73 288.267 128.919 288.267 127.365C288.267 125.743 287.733 124.73 286.533 124.73C285.267 124.73 284.8 125.676 284.8 127.905H280.133C280.133 123.446 282.867 120.878 286.533 120.878C290.6 120.878 292.867 123.514 292.867 126.554C292.867 129.189 292 130.541 289.867 131.487H289.933C292.067 132.297 293.6 133.176 293.6 137.027C293.667 141.351 290.933 143.311 286.867 143.311Z" fill="#0079C1"/>
<path d="M227.8 124.797C226.933 124.797 226 125.338 226 126.554V137.432C226 138.716 226.867 139.324 227.8 139.324C228.667 139.324 229.6 138.716 229.6 137.432V126.554C229.533 125.338 228.6 124.797 227.8 124.797Z" fill="#0079C1"/>
</g>
<defs>
<clipPath id="clip0_117438_351184">
<rect width="300" height="150" fill="white"/>
</clipPath>
</defs>
</svg>
